# xmcd
#
# Track frame offsets:
#	150
#	11012
#	29462
#	38677
#	57682
#	75367
#	85495
#	104817
#	116592
#	133722
#	146067
#	162805
#	174065
#	184887
#	211502
#	226472
#	241782
#	254515
#	265902
#	292360
#
# Disc length: 4074 seconds
#
# Revision: 0
# Processed by: cddbd v1.5.2PL0 Copyright (c) Steve Scherf et al.
# Submitted via: EasyCDDAExtractor 10.0.5.1
#
DISCID=1e0fe814
DTITLE=Schola of the Seminary of Our Lady of Guadalupe - In Nativitate Domini
DYEAR=1900
DGENRE=
TTITLE0=Introit - Hodie Scietis
TTITLE1=Gradual - Hodie Scietis
TTITLE2=Alleluja - Crastina Die
TTITLE3=Offertory - Tollite Portas
TTITLE4=Communion - Revelabitur
TTITLE5=Introit - Dominus Dixit
TTITLE6=Gradual - Tecum Principium
TTITLE7=Allelujua - Dominus Dixit
TTITLE8=Offertory - Laetentur Caeli
TTITLE9=Communion - In Splendoribus
TTITLE10=Introit - Lux Fulgebit
TTITLE11=Gradual - Benedictus
TTITLE12=Alleluja - Dominus Regnavit
TTITLE13=Offertory - Deus Enim
TTITLE14=Communion - Exulta Filia Sion
TTITLE15=Introit - Puer Natus Est
TTITLE16=Gradual - Viderunt Omnes
TTITLE17=Alleluja - Dies Sanctificatus
TTITLE18=Offertory - Tui Sunt Caeli
TTITLE19=Communion - Viderunt Omnes
EXTD=
EXTT0=
EXTT1=
EXTT2=
EXTT3=
EXTT4=
EXTT5=
EXTT6=
EXTT7=
EXTT8=
EXTT9=
EXTT10=
EXTT11=
EXTT12=
EXTT13=
EXTT14=
EXTT15=
EXTT16=
EXTT17=
EXTT18=
EXTT19=
PLAYORDER=
